<?xml version="1.0" encoding="UTF-8" standalone="no"?>
<svg
   xmlns:dc="http://purl.org/dc/elements/1.1/"
   xmlns:cc="http://creativecommons.org/ns#"
   xmlns:rdf="http://www.w3.org/1999/02/22-rdf-syntax-ns#"
   xmlns:svg="http://www.w3.org/2000/svg"
   xmlns="http://www.w3.org/2000/svg"
   xmlns:sodipodi="http://sodipodi.sourceforge.net/DTD/sodipodi-0.dtd"
   xmlns:inkscape="http://www.inkscape.org/namespaces/inkscape"
   version="1.1"
   width="1770"
   height="1020"
   id="svg2"
   inkscape:version="0.48.4 r9939"
   sodipodi:docname="raspberry-pi-logo.svg">
  <metadata
     id="metadata36">
    <rdf:RDF>
      <cc:Work
         rdf:about="">
        <dc:format>image/svg+xml</dc:format>
        <dc:type
           rdf:resource="http://purl.org/dc/dcmitype/StillImage" />
        <dc:title></dc:title>
      </cc:Work>
    </rdf:RDF>
  </metadata>
  <defs
     id="defs34" />
  <sodipodi:namedview
     pagecolor="#ffffff"
     bordercolor="#666666"
     borderopacity="1"
     objecttolerance="10"
     gridtolerance="10"
     guidetolerance="10"
     inkscape:pageopacity="0"
     inkscape:pageshadow="2"
     inkscape:window-width="1920"
     inkscape:window-height="1148"
     id="namedview32"
     showgrid="false"
     inkscape:zoom="0.49971751"
     inkscape:cx="990.46362"
     inkscape:cy="-2.3210375"
     inkscape:window-x="0"
     inkscape:window-y="0"
     inkscape:window-maximized="1"
     inkscape:current-layer="svg2" />
  <rect
     style="fill:#cccccc;fill-opacity:1;stroke:#000000;stroke-width:1.09599996;stroke-linecap:butt;stroke-miterlimit:4;stroke-opacity:1;stroke-dasharray:none"
     id="rect3027"
     width="1572.6534"
     height="936.25732"
     x="90.822479"
     y="53.170769"
     inkscape:export-filename="/home/andreas/eigene_dateien/dev-private/infoscreen-rpi/is76/rect3027.png"
     inkscape:export-xdpi="90"
     inkscape:export-ydpi="90" />
  <path
     style="fill:#000000"
     d="m 2274.3903,-52.090767 c -1.6776,0 -13.3349,7.89569 -22.4062,15.15625 -25.8644,20.70162 -44.2967,44.0256703 -59.5312,75.34375 -8.4462,17.36327 -8.4276,17.27088 -16.8125,41.5 -11.6525,33.671387 -18.354,64.246237 -21.4062,97.500007 -0.7084,7.71787 -0.9115,14.26511 -0.4375,14.59375 0.473,0.32788 0.9078,3.02788 0.9687,6 0.2858,14.02701 1.9328,35.22981 3.3438,42.90621 8.5499,46.5151 23.0253,74.3717 69.7499,134.4063 11.3982,14.6451 18.5501,26.5572 21.1875,35.25 2.0906,6.891 1.9492,8.5745 -0.6875,8.1875 -1.5012,-0.2203 -4.6029,-3.9145 -9.9688,-11.8438 -18.9305,-27.9747 -22.0748,-31.7033 -41.8437,-49.625 -16.9986,-15.4102 -32.41,-31.1238 -41.1249,-41.9062 -21.5231,-26.6289 -44.396,-70.3623 -43.7187,-83.5938 0.095,-1.8493 -0.4125,-7.425 -1.125,-12.375 -2.7527,-19.12454 2.2512,-50.51015 11.875,-74.40621 3.0346,-7.53533 1.6565,-8.41044 -5.5313,-3.5 -6.8601,4.6865 -28.2513,24.25551 -33.9687,31.0625 -6.5946,7.85135 -16.8226,23.18437 -21.5626,32.34375 -4.4275,8.55598 -10.3647,23.80606 -13.2187,33.99996 -4.5423,16.2245 -9.6334,64.3485 -7.0625,66.75 0.6489,0.6062 1.4097,7.3807 1.8125,16.4063 2.7537,61.6998 21.0313,103.512 72.0937,164.8437 17.3428,20.8306 28.0687,34.3785 34.0626,43 5.6377,8.1091 18.6199,25.8189 24.0312,32.7813 l 2.5312,3.2812 21.7187,-0.2812 21.6875,-0.2813 3.2187,-13 c 7.7012,-31.0189 6.705,-46.0642 -5.1874,-78 -7.8163,-20.9896 -13.3884,-30.0573 -27.9063,-45.5 -16.4544,-17.5027 -19.6538,-21.0171 -28.2499,-31 -39.0054,-45.2974 -52.375,-70.3902 -52.375,-98.25 0,-6.0181 0.2214,-6.8449 1.75,-6.5625 1.2035,0.2224 2.5813,2.8106 4.4063,8.3125 1.4593,4.4 3.117,9.125 3.6874,10.5 0.5704,1.375 1.8847,4.8086 2.9376,7.625 7.3366,19.6244 32.3535,49.4207 63.1873,75.25 25.161,21.0772 35.5998,31.4199 43.2813,42.875 7.53,11.2293 10.4263,16.7737 14.1875,27.25 8.717,24.2802 8.4856,52.3341 -0.7812,93.7188 -0.7654,3.418 -1.1694,6.4555 -0.875,6.75 0.2944,0.2944 23,0.5312 50.4374,0.5312 l 49.8751,0 3.4687,-2.3437 c 1.9087,-1.297 10.5692,-8.6618 19.2188,-16.375 29.2487,-26.0822 47.224,-48.8252 60.7187,-76.7188 20.2474,-41.8511 27.3139,-76.1894 24.6563,-119.7812 -1.5606,-25.598 -3.2085,-35.9706 -14.5938,-92.2813 -6.5189,-32.2421 -7.949,-44.6903 -8,-69.49996 -0.05,-24.53322 0.7167,-30.43766 6.5938,-51.5 8.0691,-28.91817 14.0251,-39.470087 35.8125,-63.406257 10.9127,-11.98898 11.2523,-12.44754 8.9375,-13.34375 -3.0621,-1.18555 -22.4923,-0.16594 -32.0625,1.6875 -13.588,2.63156 -28.1823,9.8188 -44.8438,22.125 -9.0214,6.66323 -23.4314,20.745667 -29.5,28.812497 -5.8503,7.7768 -20.135,30.57628 -22.625,36.12501 -0.4936,1.1 -2.8364,5.375 -5.1875,9.5 -6.4701,11.35184 -7.3469,10.83842 -11.9062,-6.96875 -4.9623,-19.38101 -6.1795,-30.09725 -5.5,-47.90626 0.701,-18.373987 2.945,-26.521147 12.875,-46.593747 3.948,-7.98051 6.8784,-14.80907 6.5312,-15.15625 -0.9064,-0.90648 -15.3456,5.10335 -22.6875,9.4375 -9.6084,5.67213 -20.1663,17.52141 -25.4375,28.5625 -6.0016,12.57099 -8.5625,23.568397 -8.5625,36.718757 0,12.9059 2.2601,22.56425 9.2187,39.40625 6.4459,15.60112 7.938,20.28971 6.6876,21.0625 -1.6105,0.99529 -3.8819,-1.52084 -10.375,-11.5625 -15.5892,-24.10868 -23.0798,-40.31736 -28.625,-61.93751 -3.6576,-14.260427 -4.5854,-21.527107 -3,-23.437497 0.6476,-0.78036 0.752,-1.59027 0.25,-1.78125 -1.6979,-0.64591 -4.1563,-29.04742 -4.1563,-47.84375 0,-15.3154 0.4318,-20.8239 2.4687,-31.9999997 1.3534,-7.425 2.9526,-15.3000003 3.5626,-17.5000003 1.926,-6.94707 8.116,-24.8753 9.5624,-27.6875 1.6835,-3.2729 1.7915,-5.8125 0.25,-5.8125 z m 64.8751,299.999967 c 4.2284,0 25.6533,43.3921 34.75,70.375 9.4945,28.1629 11.9537,40.745 11.9687,61.625 0.01,13.9431 -0.3507,17.8172 -2.25,25 -6.3963,24.1909 -26.6343,52.6735 -49.5625,69.75 -3.811,2.8384 -6.625,2.9526 -6.625,0.25 0,-1.1074 0.4402,-2.7949 0.9688,-3.75 0.8171,-1.4764 2.8176,-5.9545 7.0625,-15.75 3.4064,-7.8606 9.771,-26.1498 14.2812,-41 0.8352,-2.75 2.7927,-10.85 4.3438,-18 2.6146,-12.0525 2.8202,-14.567 2.7812,-34.5 -0.036,-18.6745 -0.421,-23.6026 -2.7812,-37.5 -3.8115,-22.4423 -7.161,-38.4698 -11.625,-55.4062 -5.5602,-21.0952 -5.5712,-21.0938 -3.3125,-21.0938 z m -79.6563,339 c -56.055,0 -102.6299,0.2912 -103.4999,0.625 -1.3725,0.5267 -1.5625,3.357 -1.5625,21.4688 0,24.1456 -1.3544,21.7189 12.4687,22.1562 l 7.9376,0.25 3.3749,6 c 3.9524,7.0333 11.23,23.7013 13.7187,31.4063 2.0814,6.4436 2.8275,5.6885 5.125,-5.1563 1.0552,-4.9805 1.4524,-11.1489 1.2187,-19.75 l -0.3437,-12.5 55,-0.25 c 50.8183,-0.2413 55.095,-0.1353 56.25,1.4375 0.7593,1.0341 1.25,4.9073 1.25,9.875 0,7.228 2.0041,22.5027 3.6563,27.875 0.5494,1.7867 0.6903,1.7512 1.9375,-0.5 0.7382,-1.3326 1.3555,-3.1545 1.375,-4.0312 0.088,-3.96 15.8382,-31.5207 19.5,-34.125 0.5681,-0.4041 6.3187,-0.742 12.7812,-0.75 l 11.75,-0.031 0,-22 0,-22 -101.9375,0 z m -3.875,52.3125 c -5.594,0.011 -10.8924,0.1972 -15.1875,0.5938 -11.9513,1.1035 -25.7097,3.4597 -26.8437,4.5937 -0.2942,0.2941 1.5825,9.6627 4.1562,20.8125 2.5737,11.1499 4.6875,20.9986 4.6875,21.875 0,0.8765 -1.2375,2.0544 -2.75,2.625 -20.0001,7.5455 -29.5512,10.5077 -31,9.5938 -1.1856,-0.7478 -16.0201,-32.5853 -18.5624,-39.8438 -0.4931,-1.4077 -12.4629,4.5615 -23.4375,11.6563 -18.1653,11.7434 -43.25,33.0854 -43.25,36.8125 0,0.9412 6.9604,7.9535 15.5,15.5937 8.525,7.6272 15.5,14.4653 15.5,15.1875 0,0.7223 -2.4313,4.5508 -5.375,8.5313 -2.9437,3.9804 -7.2319,10.2785 -9.5625,13.9687 -2.6961,4.269 -4.9047,6.6875 -6.0625,6.6875 -1.5701,0 -9.9764,-4.8375 -32.75,-18.9062 -2.8756,-1.7764 -5.63,-2.9503 -6.1563,-2.625 -2.9659,1.8331 -11.6799,21.6787 -16.9687,38.7187 -5.6116,18.0799 -9.6523,37.666 -8.0937,39.25 0.5071,0.5155 10.0525,1.9914 21.1874,3.2813 11.1348,1.2898 20.6993,2.793 21.25,3.3437 0.5509,0.5508 1.0155,5.3748 1.0626,10.7188 0.047,5.344 0.4132,12.8687 0.8124,16.7187 0.4131,3.9838 0.3395,7.5975 -0.1874,8.375 -0.6429,0.9486 -5.7633,1.7859 -16.7813,2.75 -8.728,0.7637 -18.7695,1.6448 -22.2813,1.9688 l -6.375,0.5937 0.625,6.6563 c 0.3404,3.6608 1.5541,10.2562 2.6876,14.6562 2.2305,8.6581 9.7385,31.3731 10.9062,33 0.3948,0.55 1.2534,2.9538 1.9375,5.3438 0.6841,2.39 2.7776,7.7211 4.6563,11.8437 l 3.4374,7.5 3.25,-1.9687 c 15.7368,-9.4963 34.8785,-20.2188 36.0938,-20.2188 1.6122,0 7.6875,9.9559 7.6875,12.5938 0,0.8827 2.4775,4.3618 5.5,7.75 3.0225,3.3882 5.4848,7.0562 5.4687,8.1562 -0.032,2.2366 -2.2553,4.5331 -19.4687,20.0625 -6.6,5.9544 -12.1672,11.4109 -12.3437,12.125 -0.5414,2.1916 7.7311,11.0301 19.8124,21.1875 12.338,10.3732 12.4438,10.4585 24.5313,18.5 13.6317,9.0689 20.5766,12.7623 23.375,12.4375 2.7874,-0.3236 4.4545,-3.1027 11.1874,-18.8125 6.6142,-15.4328 9.8582,-22 10.9062,-22 0.9674,0 10.3442,3.6487 15.5313,6.0313 1.1,0.5053 4.7,1.7466 8,2.7812 4.5356,1.422 6.0793,2.4031 6.3125,3.9688 0.1697,1.1392 -1.2928,9.9025 -3.25,19.5 -3.8487,18.8728 -4.2391,22.9775 -2.3125,24.4375 1.878,1.4231 19.9746,4.5481 30.75,5.3125 5.225,0.3707 11.1666,0.7275 13.2187,0.8125 6.6486,0.2741 29.1037,-2.0559 35.7813,-3.7188 l 6.5,-1.625 -0.094,-4 c -0.094,-4.1456 -1.1697,-9.3783 -5.4688,-26.75 -1.8346,-7.4137 -2.2741,-14.4119 -0.9688,-15.2187 0.6568,-0.4058 3.5008,-1.3246 6.3438,-2.0313 2.843,-0.7068 9.3177,-2.7212 14.375,-4.5 5.0574,-1.7787 9.7783,-3.027 10.5,-2.75 1.184,0.4543 10.0352,19.8742 16.0625,35.25 1.7162,4.3778 2.9358,6.0881 4.4688,6.3125 2.9851,0.4368 17.2837,-6.9828 27.2812,-14.1562 11.1467,-7.9979 33.3081,-26.2275 39,-32.0938 l 4.5,-4.6562 -9.0312,-8.6875 c -4.9604,-4.7852 -12.4979,-11.8139 -16.75,-15.5938 -4.2522,-3.7799 -7.7188,-7.5491 -7.7188,-8.4062 0,-0.8572 2.4219,-4.737 5.375,-8.625 2.9532,-3.8879 6.5113,-8.8938 7.9375,-11.0938 6.3083,-9.7309 5.389,-9.6942 20.1875,-0.75 1.1,0.6649 4.925,2.8563 8.5,4.875 3.575,2.0186 8.6732,4.9951 11.3438,6.5938 7.1845,4.3011 8.3288,3.7568 13.4062,-6.5625 9.7877,-19.8919 17.3869,-45.6509 19.7188,-66.7188 0.4596,-4.1522 0.2544,-5.8905 -0.7813,-6.75 -1.384,-1.1486 -11.1997,-2.4369 -32.0937,-4.1875 -6.0005,-0.5027 -11.3496,-1.3496 -11.875,-1.875 -1.2181,-1.2181 -1.3341,-32.9242 -0.125,-34.0937 0.7945,-0.7686 15.911,-2.6532 36.5937,-4.5625 3.9433,-0.364 7.1685,-1.2112 7.875,-2.0625 3.5474,-4.2743 -2.831,-30.4894 -14.2187,-58.4063 -9.4046,-23.0553 -13.4937,-28.5154 -18.125,-24.2812 -1.2321,1.1264 -3.7938,2.8293 -5.7188,3.7812 -3.5234,1.7424 -18.4164,10.7607 -25.0937,15.1875 -4.2522,2.8191 -6.3504,2.2996 -8.5625,-2.0625 -0.8727,-1.7208 -4.9118,-7.4604 -8.9688,-12.7812 -4.0569,-5.3209 -7.375,-10.0846 -7.375,-10.5938 0,-0.5091 2.8125,-3.379 6.25,-6.3437 11.6761,-10.0703 25.75,-24.1874 25.75,-25.8438 0,-3.2681 -24.2678,-25.0625 -27.9062,-25.0625 -0.8971,0 -6.4676,-3.1406 -12.4063,-7 -11.4697,-7.4538 -25.64,-15 -28.1875,-15 -1.5631,0 -2.0088,0.8967 -12.375,24.0625 -3.091,6.9077 -6.3656,13.6694 -7.25,15 l -1.5937,2.4063 -12.9063,-4.0938 c -7.0907,-2.2555 -14.675,-4.5131 -16.875,-5 -3.8916,-0.8612 -4.0047,-0.9904 -3.8437,-4.875 0.091,-2.1959 1.9682,-12.3093 4.1874,-22.4687 2.7994,-12.8156 3.6995,-18.6854 2.9376,-19.1563 -3.3507,-2.0708 -22.8117,-3.5963 -39.5938,-3.5625 z m -19.4688,79.9688 c 0.8206,0.063 1.2986,0.3517 1.75,0.8125 1.1094,1.1321 1.6195,9.7242 2.4376,42.1875 0.6288,24.9534 0.6568,41.7376 0.094,43.2187 -0.5062,1.3314 -2.2599,3.1174 -3.9063,3.9688 -4.1298,2.1357 -7.9354,1.9128 -12.2812,-0.7188 -2.0287,-1.2284 -6.3037,-3.7966 -9.5,-5.6875 -3.1963,-1.8909 -6.9375,-4.1802 -8.3125,-5.0937 -1.375,-0.9135 -6.325,-3.9068 -11,-6.6563 -30.9818,-18.2211 -34.9999,-20.7842 -34.9999,-22.3437 0,-2.388 8.7843,-13.656 15.2813,-19.5938 12.6801,-11.5891 36.6524,-24.7379 51.9999,-28.5312 4.7473,-1.1734 7.0699,-1.6676 8.4374,-1.5625 z m 44.0313,0.4375 c 5.6272,-0.046 21.3736,3.9537 30.75,8.0625 8.7397,3.8298 20.173,10.4865 28,16.2812 5.7001,4.22 19.5,18.2222 19.5,19.7813 0,1.2382 -2.4928,3.7956 -5.4062,5.5937 -9.1271,5.6332 -53.1467,33.5469 -57.1251,36.2188 -6.9214,4.6484 -13.1161,4.7483 -16.875,0.2812 l -2.5937,-3.0937 0,-40.875 c 0,-39.9329 0.037,-40.9181 2,-41.9688 0.343,-0.1835 0.9461,-0.2746 1.75,-0.2812 z m 11.125,15.9687 c -0.1259,0.022 -0.2114,0.062 -0.25,0.125 -0.2297,0.3763 -0.4855,13.4 -0.5625,28.9375 -0.077,15.5375 0.1337,28.25 0.4688,28.25 0.3349,0 2.5705,-1.35 4.9687,-3 2.3982,-1.65 4.5847,-3 4.875,-3 0.2902,0 5.6018,-3.2699 11.8125,-7.2812 6.2107,-4.0114 14.575,-9.2786 18.5625,-11.7188 3.9875,-2.4402 7.25,-4.918 7.25,-5.5 0,-2.3686 -14.0376,-12.3801 -27,-19.25 -6.9948,-3.7071 -18.2372,-7.8897 -20.125,-7.5625 z m -66,0.5313 c -2.8338,0.1919 -11.7822,4.2057 -20.4063,9.2812 -10.7786,6.3436 -24.4687,16.9271 -24.4687,18.9063 0,0.75 4.6125,4.0975 10.25,7.4687 5.6375,3.3712 16.1,9.7379 23.25,14.125 7.15,4.3872 13.3697,7.99 13.8437,8 0.479,0.01 0.5626,-10.5527 0.1563,-23.75 -0.9907,-32.1785 -1.06,-33.1225 -1.8125,-33.875 -0.1367,-0.1367 -0.4077,-0.1836 -0.8125,-0.1562 z m 151.3125,64.2187 c 0.47,-0.049 0.8216,0.028 1.1563,0.1563 2.0571,0.7894 6.2263,12.5732 8.625,24.3437 1.4799,7.2619 2.052,14.1 2.125,25.7188 0.1015,16.145 -0.8907,23.5552 -4.9063,36.8437 -2.071,6.8537 -3.608,7.6481 -9.1875,4.7188 -1.925,-1.0106 -14.8702,-8.2064 -28.75,-16 -13.8798,-7.7935 -27.9246,-15.5246 -31.2187,-17.1875 -11.928,-6.0211 -12.3325,-16.3221 -0.875,-22.5 2.9307,-1.5803 8.0437,-4.5181 11.3437,-6.5313 3.3,-2.0131 9.375,-5.6319 13.5,-8.0312 4.125,-2.3993 12.9,-7.5845 19.5,-11.5313 12.5868,-7.5268 16.651,-9.7867 18.6875,-10 z m -236.2811,3.8438 c 1.9244,0.095 10.0423,4.2672 31.0937,15.9687 2.475,1.3758 10.5749,5.8851 17.9999,10 7.425,4.1148 15.525,8.6197 18,10 2.6188,1.4606 5.3139,4.006 6.4687,6.0938 1.8424,3.3308 1.8783,3.8864 0.5,7.75 -1.3173,3.693 -2.4815,4.7424 -10.4687,9.375 -4.95,2.871 -12.825,7.4891 -17.5,10.25 -4.675,2.7609 -15.8952,9.3526 -24.9374,14.6562 -9.0423,5.3036 -17.2198,9.625 -18.1562,9.625 -1.8559,0 -1.9892,-0.2335 -5.5938,-10.5 -3.7645,-10.7217 -5.285,-19.6863 -5.9375,-35 -0.4428,-10.3914 -0.1622,-16.7064 1.0313,-24.5 1.8411,-12.0241 5.1552,-22.8956 7.2187,-23.6875 0.075,-0.029 0.153,-0.038 0.2813,-0.031 z m 230.9061,16.4687 c -1.174,0.1643 -5.121,2.0541 -9.5625,4.5625 -32.481,18.3444 -39.25,22.2509 -39.25,22.75 0,0.3074 3.4875,2.4595 7.75,4.7813 4.2625,2.3217 10,5.4821 12.75,7.0312 2.75,1.5491 10.3853,5.8197 16.9688,9.4688 6.5835,3.649 12.3011,6.2926 12.7187,5.875 3.7627,-3.7627 2.8819,-50.3156 -1.0312,-54.4063 -0.047,-0.049 -0.176,-0.086 -0.3438,-0.062 z m -222.5937,2.25 c -3.852,0 -4.3305,36.6742 -0.6874,52.75 0.2804,1.2375 0.879,2.25 1.3437,2.25 1.4645,0 47.4532,-26.4676 47.7812,-27.5 0.2982,-0.9386 -46.4851,-27.5 -48.4375,-27.5 z m 141.0312,64.2813 c 0.4615,2e-4 0.9145,0.056 1.3125,0.1562 1.9991,0.5017 22.6269,12.4441 45.4375,26.3125 4.125,2.5079 11.2125,6.7497 15.75,9.4375 4.5375,2.6877 8.25,5.4714 8.25,6.1563 0,2.5703 -10.5497,15.1071 -18.0312,21.4375 -14.6478,12.394 -33.783,22.6869 -49.6251,26.6875 -7.4382,1.8784 -9.9781,1.9279 -11,0.2812 -0.4266,-0.6875 -1.1759,-19.6312 -1.6562,-42.125 -0.7161,-33.5402 -0.63,-41.3503 0.4688,-43.4062 1.3996,-2.6186 5.8631,-4.9387 9.0937,-4.9375 z m -55.0937,1.6562 c 2.3004,0.1212 4.2647,1.296 6.4374,3.4688 l 3.4063,3.4062 -0.031,39.8438 c -0.01,21.9175 -0.3404,40.3873 -0.75,41.0312 -1.8642,2.9307 -12.196,1.8039 -26.0937,-2.8125 -6.9426,-2.3061 -22.7798,-10.5173 -32.0937,-16.6562 -8.0039,-5.2754 -23.0319,-20.2236 -23.0312,-22.9063 5e-4,-1.7277 2.656,-3.8551 12.5313,-10 6.8989,-4.293 18.8259,-11.8625 26.4999,-16.8125 7.674,-4.95 17.2715,-11.1375 21.3437,-13.75 5.2888,-3.3929 8.8235,-4.9682 11.7813,-4.8125 z m 58.8437,16.0625 c -1.1717,0 -1.3582,25.3893 -0.3437,45.2813 0.7514,14.7353 -0.4317,13.9493 12.3437,8 13.2104,-6.1519 36.107,-22.6839 34.6563,-25.0313 -0.3667,-0.5933 -3.7299,-2.7716 -7.4375,-4.8437 -3.7076,-2.072 -10.3188,-6.0801 -14.7188,-8.9063 -12.8441,-8.2499 -23.4034,-14.5 -24.5,-14.5 z m -64.2813,1 c -0.6974,0 -7.335,3.8661 -14.75,8.5938 -7.415,4.7277 -17.8562,11.293 -23.2187,14.5937 -5.3625,3.3007 -9.75,6.3526 -9.75,6.75 0,1.1532 4.8767,5.0761 13.5,10.875 9.56,6.429 17.6908,10.6706 26.5,13.8125 3.575,1.2751 6.7682,2.3228 7.0937,2.3438 0.6377,0.04 1.8963,-31.2622 1.9063,-47.2188 0,-7.2088 -0.3437,-9.75 -1.2813,-9.75 z"
     id="path3024"
     inkscape:connector-curvature="0" />
  <g
     id="g3086"
     transform="translate(1583.554,213.709)">
    <path
       inkscape:connector-curvature="0"
       id="path4-7"
       style="fill:#000000"
       d="m 1104.0267,41.804518 c -3.6193,0.112319 -7.5171,1.449327 -11.9375,4.9375 -10.8269,-4.1763 -21.327,-5.627189 -30.7187,2.875 -14.4939,-1.880758 -19.2103,2.000743 -22.7813,6.531253 -3.1825,-0.0659 -23.8188,-3.27207 -33.2812,10.84375 -23.78165,-2.81342 -31.29678,13.98787 -22.78125,29.65625 -4.85692,7.518949 -9.88951,14.947219 1.46875,29.281249 -4.01801,7.98351 -1.52744,16.64403 7.9375,27.125 -2.49786,11.2226 2.41207,19.14086 11.2187,25.3125 -1.647,15.35756 14.0835,24.28743 18.7813,27.46875 1.8037,8.94868 5.5629,17.3927 23.5312,22.0625 2.9633,13.3361 13.7621,15.63906 24.2188,18.4375 -34.5619,20.08954 -64.2007,46.52266 -64,111.375 l -5.0625,9.03125 c -39.63087,24.10229 -75.2853,101.56626 -19.53125,164.53125 3.64187,19.70838 9.74958,33.86396 15.1875,49.53125 8.13385,63.13058 61.21765,92.69161 75.21875,96.1875 20.5165,15.62812 42.3682,30.45672 71.9375,40.84375 27.8751,28.74946 58.0739,39.7064 88.4375,39.6875 0.4451,-2.8e-4 0.8985,0.005 1.3437,0 30.3637,0.0189 60.5624,-10.93804 88.4375,-39.6875 29.5694,-10.38703 51.421,-25.21563 71.9376,-40.84375 14.0011,-3.49589 67.0849,-33.05692 75.2187,-96.1875 5.4379,-15.66729 11.5456,-29.82287 15.1875,-49.53125 55.754,-62.96499 20.0996,-140.42896 -19.5312,-164.53125 l -5.0625,-9.03125 c 0.2006,-64.85234 -29.4381,-91.28546 -64,-111.375 10.4566,-2.79844 21.2555,-5.1014 24.2187,-18.4375 17.9683,-4.6698 21.7276,-13.11382 23.5313,-22.0625 4.6977,-3.18132 20.4283,-12.11119 18.7812,-27.46875 8.8067,-6.17164 13.7166,-14.0899 11.2188,-25.3125 9.4649,-10.48097 11.9555,-19.14149 7.9375,-27.125 11.3582,-14.33403 6.3256,-21.7623 1.4687,-29.281249 8.5155,-15.66838 1.0004,-32.46967 -22.7812,-29.65625 -9.4624,-14.11582 -30.0987,-10.90962 -33.2813,-10.84375 -3.571,-4.53051 -8.2874,-8.412011 -22.7812,-6.531253 -9.3917,-8.502189 -19.8918,-7.0513 -30.7188,-2.875 -12.8592,-10.147413 -21.3723,-2.013296 -31.0938,1.0625 -15.5738,-5.087778 -19.133,1.880908 -26.7812,4.718753 -16.9753,-3.588079 -22.1356,4.22353 -30.2813,12.46875 l -9.4687,-0.1875 c -25.6105,15.09311 -38.3338,45.825499 -42.8438,61.624999 -4.512,-15.80198 -17.2064,-46.534539 -42.8125,-61.624999 l -9.4687,0.1875 c -8.1457,-8.24522 -13.306,-16.05683 -30.2813,-12.46875 -7.6482,-2.837845 -11.2074,-9.80653 -26.7812,-4.718753 -6.3797,-2.018491 -12.2467,-6.214428 -19.1563,-6 z" />
    <path
       inkscape:connector-curvature="0"
       id="path6-7"
       style="fill:#75a928"
       d="m 1053.0436,108.20385 c 67.9477,35.03136 107.4469,63.36897 129.0872,87.50447 -11.0824,44.41759 -68.8964,46.44464 -90.0356,45.19858 4.3284,-2.01474 7.9398,-4.42778 9.2205,-8.13574 -5.3045,-3.76981 -24.1129,-0.39719 -37.2437,-7.77416 5.0441,-1.04499 7.4035,-2.06302 9.7629,-5.78542 -12.4057,-3.9567 -25.7686,-7.36642 -33.6277,-13.92116 4.2412,0.0524 8.2011,0.9488 13.7404,-2.89271 -11.1117,-5.98819 -22.9692,-10.73351 -32.1814,-19.88738 5.7452,-0.14063 11.9394,-0.0568 13.7403,-2.16953 -10.1704,-6.30068 -18.7512,-13.30787 -25.8536,-20.97215 8.04,0.97052 11.4353,0.13478 13.3788,-1.26556 -7.6878,-7.87419 -17.4175,-14.52319 -22.0569,-24.22644 5.9696,2.05748 11.4313,2.84506 15.3675,-0.1808 -2.6123,-5.89345 -13.8054,-9.36961 -20.24893,-23.14167 6.28433,0.60937 12.94963,1.37111 14.28273,0 -2.9223,-11.888569 -7.9274,-18.570029 -12.83638,-25.492009 13.45008,-0.19972 33.82778,0.0523 32.90458,-1.08476 l -8.3166,-8.49734 c 13.1377,-3.53724 26.5807,0.56817 36.3397,3.61589 4.3819,-3.45768 -0.078,-7.82998 -5.4238,-12.29402 11.1649,1.49065 21.2538,4.05739 30.3734,7.59337 4.8724,-4.39933 -3.1639,-8.79866 -7.0509,-13.19799 17.2493,3.27257 24.5571,7.87068 31.8198,12.47481 5.2693,-5.0508 0.3016,-9.3433 -3.2543,-13.74037 13.0056,4.81705 19.7047,11.03555 26.7575,17.17546 2.3912,-3.22705 6.075,-5.59241 1.6272,-13.37878 9.2341,5.32273 16.1892,11.59506 21.3337,18.62182 5.7134,-3.63794 3.4039,-8.61302 3.4351,-13.19799 9.5967,7.80652 15.6869,16.11395 23.1417,24.22644 1.5017,-1.09343 2.8166,-4.80171 3.9775,-10.66686 22.8953,22.211809 55.2459,78.158239 8.3165,100.340859 -39.9188,-32.94716 -87.6161,-56.88753 -140.4772,-74.84886 z" />
    <path
       inkscape:connector-curvature="0"
       id="path8-7"
       style="fill:#75a928"
       d="m 1413.5766,108.20385 c -67.9476,35.03136 -107.4469,63.36897 -129.0872,87.50447 11.0824,44.41759 68.8964,46.44464 90.0356,45.19858 -4.3284,-2.01474 -7.9398,-4.42778 -9.2205,-8.13574 5.3045,-3.76981 24.1129,-0.39719 37.2437,-7.77416 -5.0441,-1.04499 -7.4035,-2.06302 -9.7629,-5.78542 12.4057,-3.9567 25.7686,-7.36642 33.6277,-13.92116 -4.2412,0.0524 -8.2011,0.9488 -13.7403,-2.89271 11.1116,-5.98819 22.9691,-10.73351 32.1813,-19.88738 -5.7452,-0.14063 -11.9394,-0.0568 -13.7403,-2.16953 10.1704,-6.30068 18.7512,-13.30787 25.8536,-20.97215 -8.04,0.97052 -11.4353,0.13478 -13.3788,-1.26556 7.6878,-7.87419 17.4175,-14.52319 22.0569,-24.22644 -5.9696,2.05748 -11.4313,2.84506 -15.3675,-0.1808 2.6123,-5.89345 13.8054,-9.36961 20.2489,-23.14167 -6.2843,0.60937 -12.9496,1.37111 -14.2827,0 2.9223,-11.888569 7.9274,-18.570029 12.8364,-25.492009 -13.4501,-0.19972 -33.8278,0.0523 -32.9046,-1.08476 l 8.3166,-8.49734 c -13.1377,-3.53724 -26.5807,0.56817 -36.3397,3.61589 -4.3819,-3.45768 0.078,-7.82998 5.4238,-12.29402 -11.1649,1.49065 -21.2538,4.05739 -30.3734,7.59337 -4.8724,-4.39933 3.1639,-8.79866 7.051,-13.19799 -17.2494,3.27257 -24.5572,7.87068 -31.8199,12.47481 -5.2693,-5.0508 -0.3016,-9.3433 3.2543,-13.74037 -13.0056,4.81705 -19.7047,11.03555 -26.7575,17.17546 -2.3912,-3.22705 -6.075,-5.59241 -1.6272,-13.37878 -9.2341,5.32273 -16.1892,11.59506 -21.3337,18.62182 -5.7134,-3.63794 -3.4039,-8.61302 -3.4351,-13.19799 -9.5967,7.80652 -15.6869,16.11395 -23.1417,24.22644 -1.5017,-1.09343 -2.8166,-4.80171 -3.9775,-10.66686 -22.8953,22.211809 -55.2459,78.158239 -8.3165,100.340859 39.9188,-32.94716 87.6161,-56.88753 140.4772,-74.84886 z" />
    <path
       inkscape:connector-curvature="0"
       id="path10-1"
       style="fill:#bc1142"
       d="m 1315.5981,560.50931 a 81.390111,75.051762 0 0 1 -162.7802,0 81.390111,75.051762 0 1 1 162.7802,0 z" />
    <path
       inkscape:connector-curvature="0"
       id="path12-3"
       style="fill:#bc1142"
       d="m 1187.1058,346.11069 a 72.998853,86.129691 34.034226 0 1 -94.9679,143.71226 72.998853,86.129691 34.034226 1 1 94.9679,-143.71226 z" />
    <path
       inkscape:connector-curvature="0"
       id="path14-7"
       style="fill:#bc1142"
       d="m 1278.1379,342.11069 a 86.129691,72.998853 55.965774 0 0 94.9679,143.71226 86.129691,72.998853 55.965774 1 0 -94.9679,-143.71226 z" />
    <path
       inkscape:connector-curvature="0"
       id="path16-4"
       style="fill:#bc1142"
       d="m 1018.562,382.23607 c 36.4142,-9.75692 12.2916,150.63651 -17.3334,137.47577 -32.58675,-26.21268 -43.08305,-102.97543 17.3334,-137.47577 z" />
    <path
       inkscape:connector-curvature="0"
       id="path18-2"
       style="fill:#bc1142"
       d="m 1439.33,380.23607 c -36.4142,-9.75692 -12.2916,150.63651 17.3334,137.47577 32.5868,-26.21268 43.0831,-102.97543 -17.3334,-137.47577 z" />
    <path
       inkscape:connector-curvature="0"
       id="path20-3"
       style="fill:#bc1142"
       d="m 1315.6233,260.80167 c 62.8349,-10.61013 115.116,26.72229 113.0114,94.85796 -2.0669,26.12112 -136.1587,-90.96907 -113.0114,-94.85796 z" />
    <path
       inkscape:connector-curvature="0"
       id="path22-9"
       style="fill:#bc1142"
       d="m 1142.0115,258.80167 c -62.8349,-10.61013 -115.1159,26.72229 -113.0114,94.85796 2.0669,26.12112 136.1587,-90.96907 113.0114,-94.85796 z" />
    <path
       inkscape:connector-curvature="0"
       id="path24-1"
       style="fill:#bc1142"
       d="m 1232.2711,242.90395 c -37.5026,-0.97548 -73.4955,27.83418 -73.5816,44.54443 -0.1046,20.30426 29.6512,41.09266 73.8372,41.62035 45.1231,0.32321 73.9157,-16.64049 74.0611,-37.59409 0.1649,-23.73996 -41.0387,-48.93744 -74.3167,-48.57069 z" />
    <path
       inkscape:connector-curvature="0"
       id="path26-6"
       style="fill:#bc1142"
       d="m 1234.5611,659.26502 c 32.6975,-1.42711 76.5708,10.53196 76.6568,26.39598 0.5427,15.4052 -39.7897,50.21055 -78.8263,49.53765 -40.4273,1.74391 -80.0691,-33.11559 -79.5495,-45.19859 -0.6051,-17.71593 49.226,-31.54796 81.719,-30.73504 z" />
    <path
       inkscape:connector-curvature="0"
       id="path28-1"
       style="fill:#bc1142"
       d="m 1113.7905,565.25196 c 23.2791,28.04573 33.8906,77.31899 14.4635,91.84353 -18.3791,11.08784 -63.0122,6.52162 -94.7362,-39.05157 -21.3951,-38.24168 -18.6376,-77.15663 -3.6159,-88.58924 22.4644,-13.68429 57.1734,4.79902 83.8886,35.79728 z" />
    <path
       inkscape:connector-curvature="0"
       id="path30-6"
       style="fill:#bc1142"
       d="m 1350.6727,556.36004 c -25.1869,29.50165 -39.2123,83.30951 -20.8379,100.6428 17.5683,13.46361 64.7292,11.58162 99.5657,-36.75574 25.296,-32.46471 16.8201,-86.68225 2.3707,-101.07511 -21.464,-16.60213 -52.2769,4.64489 -81.0985,37.18805 z" />
  </g>
  <g
     id="g3856"
     transform="translate(2071.4411,49.756109)"
     inkscape:export-filename="/home/andreas/eigene_dateien/dev-private/infoscreen-rpi/is79/wallpaper_2019-07-26.png"
     inkscape:export-xdpi="90"
     inkscape:export-ydpi="90">
    <g
       id="g3034">
      <g
         id="g3154"
         transform="matrix(0.39728505,0,0,0.38453388,-1696.1436,293.90307)"
         inkscape:export-filename="/home/andreas/text4006.png"
         inkscape:export-xdpi="70.212044"
         inkscape:export-ydpi="70.212044">
        <path
           sodipodi:nodetypes="sccccccscccccccscscs"
           inkscape:connector-curvature="0"
           id="path4"
           d="m -281.00872,288.17347 c -15.58995,10.99223 -49.652,40.56844 -49.46003,102.60778 l -5.0625,9.03125 c -39.63087,24.10229 -75.2853,101.56626 -19.53125,164.53125 3.64187,19.70838 9.74958,33.86396 15.1875,49.53125 8.13383,63.13058 61.21763,92.69161 75.21875,96.1875 20.51653,15.62812 42.36818,30.45672 71.9375,40.84375 27.87515,28.74946 58.07388,39.7064 88.4375,39.6875 0.44515,-2.8e-4 0.89853,0.005 1.34375,0 30.363625,0.0189 60.56235,-10.93804 88.4375,-39.6875 29.56932,-10.38703 51.42097,-25.21563 71.9375,-40.84375 14.00112,-3.49589 67.08492,-33.05692 75.21875,-96.1875 5.43791,-15.66729 11.54562,-29.82287 15.1875,-49.53125 55.75404,-62.96499 20.09961,-140.42896 -19.53125,-164.53125 l -5.0625,-9.03125 c 0.19199,-62.04822 -43.402572,-91.11392 -57.567582,-103.8943 -39.191569,-35.3606 -89.747212,-8.87467 -100.30409,-6.83093 -21.592999,-25.00603 -29.839818,-23.93685 -73.012998,-24.88066 -43.16822,-0.94369 -58.49106,34.18648 -72.35011,32.8009 -15.28856,-22.63347 -52.01702,-34.35684 -101.02394,0.19721 z"
           style="fill:#000000" />
        <path
           inkscape:connector-curvature="0"
           id="path10"
           style="fill:#bc1142"
           d="m -20.56213,593.58138 a 81.390111,75.051762 0 0 1 -162.78022,0 81.390111,75.051762 0 1 1 162.78022,0 z" />
        <path
           inkscape:connector-curvature="0"
           id="path12"
           style="fill:#bc1142"
           d="m -149.05446,379.18276 a 72.998838,86.129673 34.034226 0 1 -94.96783,143.71226 72.998838,86.129673 34.034226 1 1 94.96783,-143.71226 z" />
        <path
           inkscape:connector-curvature="0"
           id="path14"
           style="fill:#bc1142"
           d="M -58.022273,375.18276 A 86.129673,72.998838 55.965774 0 0 36.945561,518.89502 86.129673,72.998838 55.965774 1 0 -58.022273,375.18276 z" />
        <path
           inkscape:connector-curvature="0"
           id="path16"
           style="fill:#bc1142"
           d="m -317.59822,415.30814 c 36.41422,-9.75692 12.29159,150.63651 -17.33338,137.47577 -32.58677,-26.21268 -43.08307,-102.97543 17.33338,-137.47577 z" />
        <path
           inkscape:connector-curvature="0"
           id="path18"
           style="fill:#bc1142"
           d="M 103.16981,413.30814 C 66.755585,403.55122 90.878205,563.94465 120.50319,550.78391 153.08996,524.57123 163.58626,447.80848 103.16981,413.30814 z" />
        <path
           inkscape:connector-curvature="0"
           id="path20"
           style="fill:#bc1142"
           d="m -20.536895,293.87374 c 62.83486,-10.61013 115.11594,26.72229 113.01138,94.85796 -2.06693,26.12112 -136.15872,-90.96907 -113.01138,-94.85796 z" />
        <path
           inkscape:connector-curvature="0"
           id="path22"
           style="fill:#bc1142"
           d="m -194.14872,291.87374 c -62.83486,-10.61013 -115.11594,26.72229 -113.01138,94.85796 2.06693,26.12112 136.15872,-90.96907 113.01138,-94.85796 z" />
        <path
           inkscape:connector-curvature="0"
           id="path24"
           style="fill:#bc1142"
           d="m -103.88915,275.97602 c -37.50259,-0.97548 -73.49548,27.83418 -73.58158,44.54443 -0.10462,20.30426 29.6512,41.09266 73.83726,41.62035 45.123045,0.32321 73.915605,-16.64049 74.061095,-37.59409 0.16484,-23.73996 -41.03879,-48.93744 -74.316775,-48.57069 z" />
        <path
           inkscape:connector-curvature="0"
           id="path26"
           style="fill:#bc1142"
           d="m -101.5991,692.33709 c 32.697435,-1.42711 76.570825,10.53196 76.656795,26.39598 0.5427,15.4052 -39.78969,50.21055 -78.826335,49.53765 -40.42729,1.74391 -80.06908,-33.11559 -79.54951,-45.19859 -0.60506,-17.71593 49.226,-31.54796 81.71905,-30.73504 z" />
        <path
           inkscape:connector-curvature="0"
           id="path28"
           style="fill:#bc1142"
           d="m -222.36973,598.32403 c 23.2791,28.04573 33.89066,77.31899 14.46355,91.84353 -18.37917,11.08784 -63.01228,6.52162 -94.73624,-39.05157 -21.39505,-38.24168 -18.63759,-77.15663 -3.61589,-88.58924 22.46443,-13.68429 57.17343,4.79902 83.88858,35.79728 z" />
        <path
           inkscape:connector-curvature="0"
           id="path30"
           style="fill:#bc1142"
           d="m 14.512425,589.43211 c -25.18682,29.50165 -39.21227,83.30951 -20.8378496,100.6428 17.5682796,13.46361 64.7291996,11.58162 99.5656596,-36.75574 25.295995,-32.46471 16.820135,-86.68225 2.37077,-101.07511 -21.46408,-16.60213 -52.27691,4.64489 -81.09858,37.18805 z" />
      </g>
      <path
         style="fill:#000000"
         d="m -1729.3463,68.51762 c -0.769,0 -6.1131,3.61957 -10.2716,6.94798 -11.8568,9.4901 -20.3066,20.18239 -27.2904,34.53932 -3.872,7.95973 -3.8634,7.91737 -7.7073,19.02456 -5.3418,15.43575 -8.4139,29.45197 -9.8131,44.69627 -0.3248,3.53805 -0.4179,6.53946 -0.2006,6.69011 0.2168,0.15031 0.4162,1.38805 0.4441,2.75054 0.1311,6.43031 0.886,16.15018 1.5329,19.66922 3.9194,21.32359 10.5553,34.09369 31.975,61.61495 5.2252,6.71366 8.5038,12.17445 9.7128,16.15942 0.9584,3.159 0.8936,3.93075 -0.3151,3.75334 -0.6882,-0.101 -2.1101,-1.79448 -4.5699,-5.42945 -8.6782,-12.82424 -10.1197,-14.53354 -19.1822,-22.74925 -7.7925,-7.06442 -14.8575,-14.2679 -18.8526,-19.2108 -9.8667,-12.20731 -20.3522,-32.25573 -20.0417,-38.32132 0.043,-0.8478 -0.1891,-3.40379 -0.5157,-5.67299 -1.2619,-8.76715 1.032,-23.15504 5.4437,-34.10955 1.3912,-3.45437 0.7594,-3.85554 -2.5356,-1.60448 -3.1449,2.1484 -12.9511,11.11929 -15.5721,14.23977 -3.0231,3.59924 -7.7118,10.62826 -9.8847,14.82712 -2.0297,3.92227 -4.7515,10.91324 -6.0598,15.5864 -2.0823,7.43765 -4.4162,29.49883 -3.2377,30.59975 0.2975,0.27789 0.6463,3.38348 0.8309,7.521 1.2624,28.28463 9.6413,47.45232 33.0495,75.56821 7.9504,9.54922 12.8673,15.75991 15.6151,19.7122 2.5844,3.71739 8.5357,11.83598 11.0164,15.02769 l 1.1604,1.5042 9.9564,-0.12893 9.942,-0.12893 1.4756,-5.95951 c 3.5304,-14.21979 3.0737,-21.11692 -2.3781,-35.75701 -3.5831,-9.62211 -6.1375,-13.77898 -12.7929,-20.85825 -7.5431,-8.02365 -9.0098,-9.63475 -12.9504,-14.21113 -17.881,-20.7654 -24.0099,-32.26854 -24.0099,-45.04008 0,-2.75883 0.1015,-3.13788 0.8022,-3.0084 0.5517,0.10193 1.1833,1.28843 2.02,3.81064 0.6689,2.01706 1.4289,4.18311 1.6904,4.81344 0.2615,0.63033 0.8639,2.20436 1.3466,3.49548 3.3633,8.99627 14.8316,22.65557 28.9666,34.49635 11.5344,9.66227 16.3198,14.40358 19.8411,19.6549 3.452,5.14776 4.7797,7.68944 6.5039,12.49203 3.9961,11.1306 3.89,23.99117 -0.3581,42.96285 -0.3509,1.56692 -0.5361,2.95938 -0.4011,3.09436 0.1349,0.13497 10.5438,0.24354 23.1217,0.24354 l 22.8639,0 1.5901,-1.07443 c 0.875,-0.59457 4.8452,-3.97077 8.8103,-7.50668 13.4083,-11.95669 21.6486,-22.3826 27.8349,-35.16966 9.2819,-19.18554 12.5213,-34.92699 11.303,-54.91051 -0.7154,-11.73474 -1.4708,-16.48975 -6.6901,-42.30387 -2.9884,-14.78055 -3.644,-20.48707 -3.6674,-31.86041 -0.023,-11.2466 0.3285,-13.95333 3.0227,-23.6088 3.6991,-13.25676 6.4295,-18.094 16.4173,-29.0669 5.0027,-5.49603 5.1583,-5.70624 4.0972,-6.11708 -1.4038,-0.54349 -10.311,-0.0761 -14.6982,0.77359 -6.2291,1.20636 -12.9194,4.50116 -20.5575,10.14261 -4.1356,3.05458 -10.7415,9.5103 -13.5234,13.20832 -2.682,3.56506 -9.2304,14.01687 -10.3719,16.56054 -0.2262,0.50426 -1.3002,2.46402 -2.378,4.35502 -2.9661,5.20395 -3.368,4.96858 -5.4581,-3.19464 -2.2748,-8.8847 -2.8328,-13.79727 -2.5213,-21.96134 0.3213,-8.42306 1.35,-12.15791 5.9022,-21.35965 1.8098,-3.65845 3.1532,-6.78883 2.994,-6.94798 -0.4155,-0.41555 -7.0348,2.33949 -10.4005,4.32637 -4.4047,2.60023 -9.2447,8.03222 -11.6611,13.09371 -2.7513,5.76284 -3.9253,10.8043 -3.9253,16.83273 0,5.91637 1.0362,10.34398 4.2262,18.06474 2.9549,7.15192 3.6389,9.30128 3.0657,9.65554 -0.7383,0.45626 -1.7796,-0.69719 -4.7562,-5.30052 -7.1464,-11.05198 -10.5803,-18.48241 -13.1223,-28.39359 -1.6768,-6.53731 -2.1021,-9.86852 -1.3753,-10.74429 0.2969,-0.35774 0.3447,-0.72902 0.1146,-0.81657 -0.7784,-0.2961 -1.9054,-13.31601 -1.9054,-21.93268 0,-7.02094 0.198,-9.54616 1.1318,-14.66955 0.6204,-3.40379 1.3535,-7.01387 1.6331,-8.0224 0.883,-3.1847 3.7206,-11.40342 4.3837,-12.6926 0.7718,-1.50037 0.8213,-2.66458 0.1146,-2.66458 z m 29.7402,137.52697 c 1.9384,0 11.7601,19.89192 15.9302,32.26153 4.3525,12.91053 5.4799,18.67844 5.4868,28.25033 0,6.39185 -0.1608,8.16782 -1.0315,11.46058 -2.9322,11.08965 -12.2098,24.14676 -22.7206,31.97503 -1.747,1.30119 -3.0371,1.35352 -3.0371,0.1146 0,-0.50768 0.2018,-1.28127 0.4442,-1.71908 0.3745,-0.67681 1.2916,-2.72969 3.2376,-7.22017 1.5616,-3.6035 4.4792,-11.9877 6.5468,-18.79535 0.3829,-1.26067 1.2803,-4.9739 1.9913,-8.25162 1.1986,-5.52515 1.2929,-6.67787 1.275,-15.81561 -0.017,-8.56084 -0.193,-10.82001 -1.275,-17.19087 -1.7473,-10.2881 -3.2828,-17.63548 -5.3292,-25.39951 -2.5489,-9.67054 -2.5539,-9.66986 -1.5185,-9.66986 z"
         id="path3024-5"
         inkscape:connector-curvature="0"
         inkscape:export-filename="/home/andreas/text4006.png"
         inkscape:export-xdpi="70.212044"
         inkscape:export-ydpi="70.212044" />
      <path
         style="fill:#000000"
         d="m -1734.338,360.28088 c -25.6969,0 -47.048,0.13347 -47.4468,0.28652 -0.6292,0.24143 -0.7163,1.53889 -0.7163,9.84177 0,11.06891 -0.6209,9.95646 5.7159,10.15694 l 3.6388,0.11461 1.5472,2.75053 c 1.8118,3.22422 5.1481,10.86521 6.289,14.39736 0.9541,2.95392 1.2962,2.60773 2.3494,-2.36375 0.4837,-2.28321 0.6658,-5.11091 0.5587,-9.05385 l -0.1576,-5.73029 25.2133,-0.11461 c 23.2963,-0.11062 25.2568,-0.0621 25.7863,0.65898 0.3481,0.47404 0.573,2.2496 0.573,4.52693 0,3.31346 0.9187,10.31574 1.6761,12.77855 0.2519,0.81904 0.3165,0.8028 0.8882,-0.22921 0.3384,-0.6109 0.6214,-1.44609 0.6303,-1.84802 0.04,-1.81535 7.2606,-14.44981 8.9393,-15.64369 0.2604,-0.18524 2.8967,-0.34015 5.8592,-0.34382 l 5.3865,-0.0143 0,-10.08531 0,-10.08532 -46.7305,0 z"
         id="path3024-9"
         inkscape:connector-curvature="0"
         inkscape:export-filename="/home/andreas/text4006.png"
         inkscape:export-xdpi="70.212044"
         inkscape:export-ydpi="70.212044" />
      <path
         style="fill:#75a928;fill-opacity:1;stroke:none"
         d="m -1769.9991,344.06692 c 6.7107,-0.30337 -0.8117,0.30405 9.2397,-0.30783 2.5418,-9.40494 -0.565,-15.28044 -1.6902,-20.42017 -0.4413,-2.01535 -5.8297,-18.84609 -21.7363,-30.89827 -12.0172,-9.10537 -25.1905,-29.87851 -34.314,-43.45728 1.6232,22.84919 22.3744,53.77333 33.6242,68.2372 9.0247,13.2277 7.2302,7.57983 14.8766,26.84635 z"
         id="path3944"
         inkscape:connector-curvature="0"
         sodipodi:nodetypes="ccssccc"
         inkscape:export-filename="/home/andreas/text4006.png"
         inkscape:export-xdpi="70.212044"
         inkscape:export-ydpi="70.212044" />
      <path
         style="fill:#75a928;fill-opacity:1;stroke:none"
         d="m -1662.9782,251.14424 c -1.7321,-31.94674 -11.257,-53.58893 -11.2126,-58.29223 0.044,-4.70331 -1.4135,-4.78039 6.0279,-48.52199 -8.019,6.77884 -24.5513,32.65487 -17.349,54.83462 3.3638,10.35873 6.6841,15.4167 10.3903,23.04646 1.5785,3.2495 7.4461,21.57257 12.1434,28.93314 z"
         id="path3944-2-5"
         inkscape:connector-curvature="0"
         sodipodi:nodetypes="czcssc"
         inkscape:export-filename="/home/andreas/text4006.png"
         inkscape:export-xdpi="70.212044"
         inkscape:export-ydpi="70.212044" />
      <path
         style="fill:#75a928;fill-opacity:1;stroke:none"
         d="m -1715.8575,284.58947 c 16.0688,-55.18695 3.2625,-59.23295 -8.0659,-82.72621 -11.3284,-23.49325 -30.7673,-42.64995 -23.3259,-86.39154 -8.019,6.77883 -33.5786,62.82343 -15.6959,97.24956 17.8787,34.41846 20.151,38.6928 47.0877,71.86819 z"
         id="path3944-2-5-6"
         inkscape:connector-curvature="0"
         sodipodi:nodetypes="czcsc"
         inkscape:export-filename="/home/andreas/text4006.png"
         inkscape:export-xdpi="70.212044"
         inkscape:export-ydpi="70.212044" />
    </g>
    <text
       inkscape:export-ydpi="70.212044"
       inkscape:export-xdpi="70.212044"
       inkscape:export-filename="/home/andreas/text4006.png"
       sodipodi:linespacing="125%"
       id="text4000"
       y="288.17169"
       x="-1502.3259"
       style="font-size:170.20353699px;font-style:normal;font-weight:normal;line-height:125%;letter-spacing:0px;word-spacing:0px;fill:#000000;fill-opacity:1;stroke:none;font-family:Sans"
       xml:space="preserve"><tspan
         style="font-style:normal;font-variant:normal;font-weight:bold;font-stretch:normal;font-family:Sawasdee;-inkscape-font-specification:Sawasdee Bold"
         y="288.17169"
         x="-1502.3259"
         id="tspan4002"
         sodipodi:role="line">Raspberry Pi</tspan><tspan
         style="font-style:normal;font-variant:normal;font-weight:bold;font-stretch:normal;font-family:Sawasdee;-inkscape-font-specification:Sawasdee Bold"
         id="tspan4004"
         y="500.92612"
         x="-1502.3259"
         sodipodi:role="line">Infoscreen</tspan></text>
    <text
       inkscape:export-ydpi="70.212044"
       inkscape:export-xdpi="70.212044"
       sodipodi:linespacing="125%"
       id="text4006"
       y="571.7829"
       x="-790.01923"
       style="font-size:27.69244385px;font-style:normal;font-weight:normal;line-height:125%;letter-spacing:0px;word-spacing:0px;fill:#000000;fill-opacity:1;stroke:none;font-family:Sans"
       xml:space="preserve"><tspan
         style="font-style:normal;font-variant:normal;font-weight:bold;font-stretch:normal;font-family:Sawasdee;-inkscape-font-specification:Sawasdee Bold"
         y="571.7829"
         x="-790.01923"
         id="tspan4008"
         sodipodi:role="line">Version 2019-07-26</tspan></text>
  </g>
  <text
     xml:space="preserve"
     style="font-size:76.26823425px;font-style:normal;font-weight:normal;line-height:125%;letter-spacing:0px;word-spacing:0px;fill:#ffffff;fill-opacity:1;stroke:#ffffff;font-family:Sans"
     x="200.68512"
     y="847.98981"
     id="text3020"
     sodipodi:linespacing="125%"
     inkscape:export-filename="/home/andreas/eigene_dateien/dev-private/infoscreen-rpi/is79/wallpaper_2019-07-26.png"
     inkscape:export-xdpi="90"
     inkscape:export-ydpi="90"><tspan
       sodipodi:role="line"
       id="tspan3022"
       x="200.68512"
       y="847.98981"
       style="font-style:normal;font-variant:normal;font-weight:bold;font-stretch:normal;fill:#ffffff;stroke:#ffffff;font-family:Sawasdee;-inkscape-font-specification:Sawasdee Bold">Bitte warten - Infoscreen wird gestartet.</tspan></text>
  <g
     id="g3845"
     transform="translate(2059.0966,49.756109)"
     inkscape:export-xdpi="90"
     inkscape:export-ydpi="90"
     style="fill:#ffffff;stroke:#ffffff"
     inkscape:export-filename="/home/andreas/eigene_dateien/dev-private/infoscreen-rpi/is79/wallpaper_2019-07-26.png">
    <path
       inkscape:connector-curvature="0"
       id="path3025"
       d="m -1834.6512,708.16949 1336.07007,0"
       style="fill:#ffffff;stroke:#ffffff;stroke-width:5.09956741;stroke-linecap:butt;stroke-linejoin:miter;stroke-miterlimit:4;stroke-opacity:1;stroke-dasharray:none" />
    <path
       inkscape:connector-curvature="0"
       id="path3025-2"
       d="m -1834.6512,838.98305 1336.07006,0"
       style="fill:#ffffff;stroke:#ffffff;stroke-width:5.09956741;stroke-linecap:butt;stroke-linejoin:miter;stroke-miterlimit:4;stroke-opacity:1;stroke-dasharray:none" />
  </g>
</svg>
